<?xml version="1.0" standalone="no"?>
<!DOCTYPE svg PUBLIC "-//W3C//DTD SVG 20010904//EN"
 "http://www.w3.org/TR/2001/REC-SVG-20010904/DTD/svg10.dtd">
<svg version="1.0" xmlns="http://www.w3.org/2000/svg"
 width="300.000000pt" height="300.000000pt" viewBox="0 0 300.000000 300.000000"
 preserveAspectRatio="xMidYMid meet">
<metadata>
Created by potrace 1.10, written by Peter Selinger 2001-2011
</metadata>
<g transform="translate(0.000000,300.000000) scale(0.100000,-0.100000)"
fill="#FFD700" stroke="none">
<path d="M1504 2967 c-33 -49 -54 -94 -54 -115 0 -31 -22 -42 -81 -42 -71 0
-82 -12 -77 -84 3 -49 1 -56 -17 -58 -29 -4 -42 -65 -24 -104 16 -32 5 -31
182 -18 l87 6 0 -70 c0 -62 3 -73 22 -86 31 -22 74 -20 98 4 16 16 20 33 20
85 0 45 4 65 13 66 38 3 116 -3 142 -11 48 -13 109 -20 99 -11 -16 15 -145 39
-244 46 -57 4 -142 2 -215 -6 -66 -7 -136 -13 -155 -13 l-35 -1 0 50 0 50 80
8 c107 11 315 1 394 -18 75 -18 155 -59 182 -93 10 -14 19 -20 19 -15 0 15
-43 62 -76 84 -25 16 -26 19 -9 19 19 1 20 1 1 12 -74 43 -342 71 -471 50 -68
-11 -85 -4 -85 37 0 15 6 35 13 44 11 16 22 16 148 2 196 -20 317 -53 391
-107 29 -20 30 -20 20 -1 -11 19 -117 76 -167 89 -23 6 -25 8 -11 16 36 20 8
114 -56 187 -15 17 -35 31 -44 31 -14 0 -8 -11 23 -42 42 -45 66 -84 77 -130
l6 -28 -121 0 -121 0 7 37 c10 53 39 106 75 137 30 25 31 26 8 26 -15 0 -31
-12 -44 -33z m72 -472 c7 -53 20 -51 29 5 5 31 11 40 27 40 14 0 18 -5 14 -16
-3 -9 -6 -38 -6 -65 0 -42 -3 -51 -24 -60 -18 -9 -30 -7 -55 5 -29 16 -31 19
-31 76 0 53 2 60 19 60 16 0 21 -9 27 -45z"/>
<path d="M770 2630 c-14 -4 47 -9 135 -11 179 -5 218 -16 302 -85 24 -19 43
-31 43 -25 0 31 -99 93 -185 116 -61 16 -244 19 -295 5z"/>
<path d="M2155 2614 c-47 -6 -106 -23 -152 -44 -53 -24 -68 -47 -16 -24 94 41
129 47 298 51 94 3 174 9 179 13 8 8 -251 11 -309 4z"/>
<path d="M745 2589 c47 -55 66 -92 89 -171 69 -235 122 -322 216 -358 19 -8
37 -17 40 -20 9 -13 75 -20 90 -10 12 8 11 10 -6 10 -49 0 -128 35 -175 78
-59 53 -95 125 -139 277 -38 131 -64 182 -105 202 l-30 16 20 -24z"/>
<path d="M2431 2555 c-21 -24 -40 -66 -61 -138 -59 -194 -79 -237 -139 -298
-56 -55 -122 -88 -180 -90 l-26 0 25 -10 c25 -10 110 5 110 20 0 3 12 12 28
19 40 18 55 32 91 85 40 59 57 99 88 207 26 93 78 208 102 227 9 7 11 13 5 13
-7 0 -26 -16 -43 -35z"/>
<path d="M1008 2503 c-44 -18 -45 -24 -23 -137 21 -112 43 -152 135 -241 58
-57 78 -71 67 -50 -8 17 -42 56 -75 88 -71 68 -88 101 -109 211 -16 80 -16 85
2 102 20 21 103 25 185 11 58 -10 41 6 -22 22 -63 15 -115 13 -160 -6z"/>
<path d="M1970 2511 c8 -5 56 -11 106 -14 51 -4 104 -12 119 -19 26 -12 27
-14 21 -70 -9 -76 -42 -175 -72 -215 -14 -18 -47 -56 -74 -84 -77 -80 -59 -83
21 -4 82 80 106 127 138 265 l23 94 -21 17 c-12 10 -44 22 -72 28 -59 13 -211
14 -189 2z"/>
<path d="M1370 2366 c61 -64 138 -129 124 -105 -17 30 -59 74 -104 110 -72 58
-79 56 -20 -5z"/>
<path d="M1785 2394 c-57 -48 -135 -127 -135 -136 0 -11 95 70 149 126 40 41
31 48 -14 10z"/>
<path d="M1306 2395 c5 -11 9 -51 9 -90 l0 -70 50 -7 c45 -6 114 -2 124 8 2 2
-35 4 -83 4 -71 0 -87 3 -83 14 3 7 8 34 12 59 6 39 4 50 -15 74 -15 18 -20
21 -14 8z"/>
<path d="M1821 2376 c-9 -16 -11 -40 -6 -75 10 -72 26 -64 18 9 -4 41 -2 64 7
75 7 8 8 15 3 15 -5 0 -15 -11 -22 -24z"/>
<path d="M1673 2230 c29 -9 145 -5 155 4 3 4 -37 6 -89 5 -67 0 -86 -3 -66 -9z"/>
<path d="M1330 2011 c-81 -31 -151 -82 -183 -133 -27 -42 -10 -34 54 27 70 66
152 108 206 103 43 -3 40 16 27 -173 -8 -121 9 -199 60 -280 32 -49 41 -56 92
-71 44 -12 81 -15 153 -11 101 5 152 19 306 83 132 55 275 61 290 13 9 -27
-12 -50 -40 -43 -43 11 -151 -18 -286 -76 -169 -72 -220 -84 -340 -78 -205 10
-308 90 -345 269 -12 58 -13 86 -4 142 6 39 13 73 15 77 2 4 -21 1 -53 -6 -31
-8 -77 -14 -102 -15 -38 -1 -41 -2 -19 -9 15 -4 51 -6 81 -4 l56 3 4 -112 c4
-101 8 -118 37 -179 59 -122 122 -159 325 -193 l39 -7 -28 -18 c-16 -10 -51
-43 -79 -72 -53 -55 -149 -138 -160 -138 -10 0 -138 -103 -156 -125 -13 -17
-13 -18 0 -10 71 42 268 197 323 254 38 39 74 71 80 71 7 0 25 7 40 15 26 14
28 13 37 -11 17 -45 11 -65 -32 -105 -99 -91 -266 -188 -378 -220 -44 -12 -75
-29 -54 -29 5 0 36 7 68 15 50 13 59 13 72 1 8 -8 14 -19 14 -24 0 -5 9 -17
20 -27 11 -10 17 -22 13 -26 -11 -11 -183 20 -183 32 0 5 -7 9 -15 9 -37 0 -9
-21 53 -40 97 -31 204 -29 307 4 93 30 122 46 87 46 -13 0 -32 -5 -43 -11 -28
-15 -131 -41 -137 -34 -3 3 0 5 6 5 7 0 20 16 29 35 14 30 15 40 3 75 -8 24
-10 44 -4 49 5 4 45 36 89 71 44 36 85 71 90 80 29 45 17 126 -20 133 -13 3
-10 5 10 6 54 2 185 40 185 53 0 4 6 8 13 8 8 0 27 6 43 14 96 46 130 58 227
80 39 9 35 -15 -9 -61 -47 -50 -66 -88 -62 -126 2 -26 8 -33 32 -37 34 -6 46
-27 19 -37 -10 -3 -20 -9 -23 -13 -3 -3 -29 -24 -59 -48 -76 -60 -191 -199
-191 -231 0 -6 -4 -11 -9 -11 -5 0 -14 -15 -21 -32 -7 -18 -16 -42 -21 -53
-50 -112 -81 -248 -84 -368 l-3 -107 -45 -43 c-80 -77 -125 -217 -97 -301 l12
-36 176 2 177 2 -165 3 c-190 4 -190 4 -190 91 0 64 29 139 79 202 19 25 36
46 37 48 1 2 14 -4 28 -13 33 -22 33 -55 1 -85 -22 -21 -25 -31 -24 -88 l2
-64 153 3 c137 2 156 1 174 -16 25 -23 25 -33 -2 -62 l-21 -23 20 0 c16 0 23
8 28 30 17 78 -14 94 -183 95 -103 0 -135 3 -141 14 -15 24 -4 81 18 100 21
18 55 18 67 0 9 -15 117 -10 166 7 25 8 54 24 63 34 14 16 8 15 -45 -7 -75
-30 -157 -34 -196 -8 -49 32 -69 96 -69 220 1 128 22 222 85 367 87 203 239
358 395 403 75 22 192 17 256 -12 59 -27 123 -84 157 -142 25 -43 27 -54 27
-156 0 -116 -14 -174 -70 -302 -31 -68 -117 -200 -176 -266 -54 -62 -95 -88
-200 -126 -60 -22 -73 -29 -44 -25 90 13 177 55 237 115 32 31 58 59 58 62 0
3 11 18 25 33 14 15 25 33 25 40 0 8 4 14 9 14 12 0 106 193 131 268 28 87 36
221 17 294 -17 64 -22 72 -97 145 -46 45 -66 57 -126 75 -51 14 -71 25 -68 34
14 48 12 46 36 30 28 -20 72 -21 87 -2 20 24 2 63 -55 120 -51 51 -66 76 -44
76 5 0 34 24 65 53 80 78 74 130 -17 129 -23 -1 -68 8 -99 18 -48 16 -85 19
-238 19 -100 -1 -185 2 -188 5 -4 3 5 6 19 6 55 0 108 79 108 161 0 30 -5 42
-26 56 -38 25 -52 11 -100 -105 -24 -57 -39 -100 -33 -97 13 9 49 80 69 140
14 41 21 50 41 50 23 0 24 -3 24 -62 0 -71 -22 -104 -84 -124 -20 -6 -41 -16
-47 -21 -18 -13 -77 24 -85 53 -4 15 1 36 14 57 15 26 18 43 13 75 -10 63 -38
87 -100 87 -127 0 -196 -130 -124 -234 60 -85 187 -159 309 -180 62 -10 103
-26 67 -26 -8 0 -35 -11 -60 -24 -98 -52 -176 -71 -293 -71 -136 0 -160 9
-207 80 -47 71 -64 157 -53 274 12 131 11 152 -10 167 -25 18 -60 17 -115 -5z
m553 -22 c27 -33 23 -97 -8 -120 -21 -17 -23 -23 -14 -47 14 -35 37 -60 74
-80 25 -12 66 -15 238 -13 177 2 212 0 233 -14 15 -10 52 -17 95 -19 39 -2 75
-8 81 -14 17 -17 -6 -60 -36 -68 -13 -3 -26 -14 -29 -24 -6 -23 -53 -54 -71
-47 -8 3 -18 27 -22 53 l-7 47 -219 -6 c-216 -5 -220 -5 -280 20 -201 81 -290
213 -207 308 50 57 134 69 172 24z m514 -389 c16 -24 7 -50 -17 -50 -19 0 -30
19 -30 51 0 25 32 25 47 -1z m66 -118 c45 -32 117 -115 117 -133 0 -5 -12 -12
-26 -15 -22 -6 -33 1 -73 45 -41 44 -52 51 -85 51 -39 0 -68 -11 -100 -39 -17
-15 -13 -16 60 -21 l79 -5 3 -32 3 -32 -137 -3 c-157 -3 -161 -1 -124 69 23
43 77 94 154 146 44 29 48 29 129 -31z m-886 -478 c15 -24 15 -29 2 -53 -29
-51 -119 -35 -119 21 0 58 85 81 117 32z"/>
<path d="M858 1913 c-32 -5 -97 -64 -118 -107 -20 -39 -20 -206 0 -266 8 -25
25 -64 37 -88 28 -53 29 -62 3 -62 -11 0 -20 5 -20 10 0 11 -118 12 -125 1 -2
-4 -17 -8 -34 -9 -90 -7 -212 -96 -250 -183 -13 -30 -29 -65 -35 -78 -6 -13
-11 -63 -11 -110 0 -67 5 -99 24 -146 35 -88 102 -177 173 -230 55 -41 88 -60
193 -106 57 -25 249 -58 343 -59 19 0 22 -5 22 -39 0 -48 17 -67 73 -81 96
-23 188 -62 221 -92 11 -10 24 -18 28 -18 5 0 25 -15 44 -32 20 -18 50 -45 67
-60 16 -16 36 -28 43 -28 8 0 14 -4 14 -9 0 -5 8 -12 18 -15 29 -10 -119 121
-195 173 -68 47 -156 83 -235 97 -45 7 -72 35 -63 63 9 30 43 35 116 16 214
-54 318 -131 375 -275 32 -83 44 -85 18 -3 -33 109 -99 182 -204 230 -30 14
-71 34 -91 44 -20 10 -47 20 -60 20 -50 3 35 15 131 20 159 7 270 5 278 -6 4
-6 21 -16 37 -24 l30 -13 -24 26 c-41 43 -83 49 -290 37 -233 -14 -373 -14
-481 -1 -435 53 -690 372 -547 683 79 170 291 234 520 156 121 -42 192 -78
250 -129 51 -46 59 -45 25 1 -21 27 -147 109 -169 109 -6 0 -7 16 -3 38 3 20
7 42 8 47 0 6 15 30 33 55 56 80 57 142 1 95 -33 -28 -63 -32 -71 -11 -3 7 6
36 19 62 33 65 28 118 -16 157 -35 31 -51 34 -72 10 -39 -46 -49 -143 -22
-234 11 -39 29 -68 65 -105 57 -58 58 -84 4 -84 -101 0 -199 160 -199 325 0
130 65 206 180 213 81 5 119 -10 150 -59 26 -42 30 -78 13 -111 -10 -19 -9
-19 20 -13 82 18 114 -82 65 -205 -18 -44 -71 -82 -131 -95 -18 -4 -33 -11
-33 -16 0 -19 110 19 144 49 32 29 56 93 56 154 0 75 -12 104 -55 129 -22 13
-35 29 -35 41 0 38 -50 114 -86 132 -33 15 -100 19 -166 9z m103 -172 c24 -30
24 -62 -1 -111 -33 -65 -22 -100 32 -100 34 0 36 -16 8 -63 l-21 -35 -39 35
c-29 26 -44 51 -56 92 -19 66 -15 168 7 182 8 5 10 9 6 9 -5 0 -6 4 -3 8 10
16 49 6 67 -17z"/>
<path d="M718 1259 c-53 -12 -148 -62 -185 -96 -80 -75 -39 -245 93 -391 106
-118 261 -154 729 -170 252 -8 275 -15 334 -92 25 -33 32 -39 27 -20 -11 37
-37 69 -71 88 -16 9 -33 21 -37 27 -4 5 -114 13 -255 18 -431 13 -612 51 -697
145 -17 19 -37 41 -43 48 -7 7 -13 17 -13 23 0 5 -6 14 -13 18 -23 14 -67 117
-74 172 -11 97 40 151 200 207 43 15 147 19 147 6 0 -5 26 -14 58 -21 31 -7
92 -24 134 -38 43 -13 88 -23 100 -21 34 5 -311 108 -357 107 -22 -1 -57 -5
-77 -10z"/>
<path d="M2338 1117 c-123 -46 -250 -166 -308 -290 -56 -120 -91 -262 -93
-376 -2 -91 -1 -94 26 -114 21 -16 45 -22 100 -24 50 -2 66 0 52 6 -11 5 -37
10 -58 10 -39 1 -71 14 -94 37 -28 28 -9 187 42 344 29 93 70 182 79 173 3 -3
6 -1 6 5 0 19 148 162 168 162 5 0 17 8 28 19 27 25 113 45 155 37 41 -8 76
-37 108 -91 35 -56 36 -179 4 -247 -13 -26 -23 -54 -23 -62 0 -8 -3 -16 -7
-18 -5 -2 -25 -39 -46 -83 -37 -77 -72 -138 -125 -218 -14 -21 -46 -53 -71
-70 -50 -34 -100 -77 -89 -77 18 0 159 103 179 132 51 70 184 335 214 427 34
103 0 243 -72 298 -41 32 -119 40 -175 20z"/>
<path d="M1740 905 c-25 -30 -136 -84 -205 -101 -133 -31 -232 -5 -266 69 -17
39 -19 40 -19 14 0 -20 11 -40 33 -62 66 -66 212 -68 352 -5 62 29 135 83 124
94 -3 4 -12 -1 -19 -9z"/>
</g>
</svg>
